HIERARCHY
ROOT SpineBase
{
  OFFSET 0.000000 0.000000 0.000000
  CHANNELS 6 Xposition Yposition Zposition Zrotation Xrotation Yrotation
  JOINT SpineMid
  {
    OFFSET 0.000000 36.313895 0.000000
    CHANNELS 3 Zrotation Xrotation Yrotation
    JOINT SpineShoulder
    {
      OFFSET -0.229862 26.861844 -0.901896
      CHANNELS 3 Zrotation Xrotation Yrotation
      JOINT Neck
      {
        OFFSET -0.150700 8.841059 -0.685727
        CHANNELS 3 Zrotation Xrotation Yrotation
        JOINT Head
        {
          OFFSET -2.372950 12.068307 4.595816
          CHANNELS 3 Zrotation Xrotation Yrotation
          End Site
          {
            OFFSET 0 0 0
          }
        }
      }
      JOINT ShoulderLeft
      {
        OFFSET -10.871327 -11.407607 -9.938193
        CHANNELS 3 Zrotation Xrotation Yrotation
        JOINT ElbowLeft
        {
          OFFSET -0.572062 -28.261103 -1.583194
          CHANNELS 3 Zrotation Xrotation Yrotation
          JOINT WristLeft
          {
            OFFSET -4.351598 -19.957851 3.961764
            CHANNELS 3 Zrotation Xrotation Yrotation
            JOINT HandLeft
            {
              OFFSET 0.732925 -5.239172 2.132818
              CHANNELS 3 Zrotation Xrotation Yrotation
              JOINT HandTipLeft
              {
                OFFSET -1.494316 -7.711083 1.362100
                CHANNELS 3 Zrotation Xrotation Yrotation
                End Site
                {
                  OFFSET 0 0 0
                }
              }
              JOINT ThumbLeft
              {
                OFFSET -4.299560 1.398834 -0.443202
                CHANNELS 3 Zrotation Xrotation Yrotation
                End Site
                {
                  OFFSET 0 0 0
                }
              }
            }
          }
        }
      }
      JOINT ShoulderRight
      {
        OFFSET 2.434721 -5.969465 -9.216993
        CHANNELS 3 Zrotation Xrotation Yrotation
        JOINT ElbowRight
        {
          OFFSET -11.700714 -22.135564 -5.338441
          CHANNELS 3 Zrotation Xrotation Yrotation
          JOINT WristRight
          {
            OFFSET -4.748887 -24.031966 4.774365
            CHANNELS 3 Zrotation Xrotation Yrotation
            JOINT HandRight
            {
              OFFSET -0.402459 -8.006026 3.254518
              CHANNELS 3 Zrotation Xrotation Yrotation
              JOINT HandTipRight
              {
                OFFSET -3.860762 -8.369979 1.945939
                CHANNELS 3 Zrotation Xrotation Yrotation
                End Site
                {
                  OFFSET 0 0 0
                }
              }
              JOINT ThumbRight
              {
                OFFSET 3.394501 -0.259455 -4.233121
                CHANNELS 3 Zrotation Xrotation Yrotation
                End Site
                {
                  OFFSET 0 0 0
                }
              }
            }
          }
        }
      }
    }
  }
  JOINT HipLeft
  {
    OFFSET -7.096783 0.886823 -0.561295
    CHANNELS 3 Zrotation Xrotation Yrotation
    JOINT KneeLeft
    {
      OFFSET 13.636433 -41.128991 4.451875
      CHANNELS 3 Zrotation Xrotation Yrotation
      JOINT AnkleLeft
      {
        OFFSET 12.684767 -33.031956 4.430221
        CHANNELS 3 Zrotation Xrotation Yrotation
        JOINT FootLeft
        {
          OFFSET -9.988390 -4.681830 -8.875250
          CHANNELS 3 Zrotation Xrotation Yrotation
          End Site
          {
            OFFSET 0 0 0
          }
        }
      }
    }
  }
  JOINT HipRight
  {
    OFFSET 5.304083 1.905011 -6.721201
    CHANNELS 3 Zrotation Xrotation Yrotation
    JOINT KneeRight
    {
      OFFSET -10.145031 -42.210724 3.830093
      CHANNELS 3 Zrotation Xrotation Yrotation
      JOINT AnkleRight
      {
        OFFSET 6.979199 -35.602655 -3.485424
        CHANNELS 3 Zrotation Xrotation Yrotation
        JOINT FootRight
        {
          OFFSET -5.196459 -5.947425 2.429832
          CHANNELS 3 Zrotation Xrotation Yrotation
          End Site
          {
            OFFSET 0 0 0
          }
        }
      }
    }
  }
}
MOTION
Frames: 9
Frame Time: 0.033333
59.580288 82.137846 247.248966 -0.000000 0.000000 26.415054 -0.000000 0.000000 -26.415054 -0.000000 0.000000 0.000000 -0.000000 0.000000 0.000000 0.000000 0.000000 0.000000 -0.000000 0.000000 0.000000 -0.000000 0.000000 0.000000 -0.000000 0.000000 0.000000 -0.000000 0.000000 0.000000 0.000000 0.000000 0.000000 0.000000 0.000000 0.000000 -0.000000 0.000000 0.000000 -0.000000 0.000000 0.000000 -0.000000 0.000000 0.000000 -0.000000 0.000000 0.000000 0.000000 0.000000 0.000000 0.000000 0.000000 0.000000 -0.000000 0.000000 -26.415054 -0.000000 0.000000 0.000000 -0.000000 0.000000 0.000000 0.000000 0.000000 0.000000 -0.000000 0.000000 -26.415054 -0.000000 0.000000 0.000000 -0.000000 0.000000 0.000000 0.000000 0.000000 0.000000
59.622185 82.186266 247.234204 0.017311 -0.016585 26.764983 -0.007988 0.022604 -26.764979 -0.000000 0.000000 0.000000 -0.000000 0.000000 0.000000 0.000000 0.000000 0.000000 -1.219562 -0.733310 0.075373 1.220625 0.731539 -0.090970 3.804669 -2.302778 1.287157 -3.986752 4.993937 -1.674643 0.000000 0.000000 0.000000 0.000000 0.000000 0.000000 -0.000000 0.000000 0.000000 -0.000000 0.000000 0.000000 -0.000000 0.000000 0.000000 -0.000000 0.000000 0.000000 0.000000 0.000000 0.000000 0.000000 0.000000 0.000000 -1.826710 4.901743 -25.914615 8.165724 -7.537668 -1.123572 -7.638147 5.458019 3.453826 0.000000 0.000000 0.000000 -0.007988 0.022604 -26.764979 -0.000000 0.000000 0.000000 2.161628 5.836975 -4.496911 0.000000 0.000000 0.000000
59.660961 82.228065 247.211437 0.028652 -0.031012 27.058890 -0.011408 0.040651 -27.058878 -0.000000 0.000000 0.000000 -0.839978 0.328064 0.386929 0.000000 0.000000 0.000000 -2.095220 -1.242243 0.119846 2.256950 2.248033 -0.360084 6.676730 -5.052520 2.700105 -7.089239 9.218678 -2.904974 0.000000 0.000000 0.000000 0.000000 0.000000 0.000000 -0.000000 0.000000 0.000000 -1.093250 -0.230403 -0.173472 1.092556 0.233670 0.169046 0.470279 0.953987 -0.335913 0.000000 0.000000 0.000000 0.000000 0.000000 0.000000 -3.308094 8.856827 -25.401045 14.449726 -13.435007 -1.251671 -12.847381 8.846146 6.351949 0.000000 0.000000 0.000000 -0.011408 0.040651 -27.058878 -0.000000 0.000000 0.000000 4.226395 10.454347 -8.389119 0.000000 0.000000 0.000000
59.696618 82.263244 247.180664 0.034012 -0.043275 27.298963 -0.010376 0.054054 -27.298946 -0.000000 0.000000 0.000000 -1.119548 0.435635 0.516512 0.000000 0.000000 0.000000 -2.647183 -1.538007 0.143959 2.971007 2.923831 -0.470073 8.594778 -6.624900 3.642174 -9.279262 12.377644 -3.709908 0.000000 0.000000 0.000000 0.000000 0.000000 0.000000 0.555823 -0.725652 0.254090 -2.017421 0.487041 -0.472775 2.306513 0.768309 0.549366 -0.242664 0.831044 -0.806353 0.000000 0.000000 0.000000 0.000000 0.000000 0.000000 -4.402382 11.781899 -24.970098 18.988293 -17.663365 -0.943596 -15.985273 10.688902 8.515305 0.000000 0.000000 0.000000 -0.010376 0.054054 -27.298946 0.351284 0.744283 0.109097 5.405101 12.753735 -11.224350 0.000000 0.000000 0.000000
59.729154 82.291802 247.141886 0.033381 -0.053369 27.486945 -0.004981 0.062751 -27.486927 -0.000000 0.000000 0.000000 -1.305972 0.506797 0.603115 0.000000 0.000000 0.000000 -2.887304 -1.627000 0.153755 3.424336 3.313310 -0.525889 9.418696 -7.574778 4.142742 -10.549882 14.256497 -4.109060 0.000000 0.000000 0.000000 0.000000 0.000000 0.000000 0.743075 -0.925302 0.317616 -2.461237 0.738252 -0.582187 2.658302 0.953176 0.635452 -0.294985 0.907705 -0.967208 0.000000 0.000000 0.000000 0.000000 0.000000 0.000000 -5.078918 13.653030 -24.694199 21.812854 -20.310739 -0.594595 -17.209127 11.273439 9.888805 0.000000 0.000000 0.000000 -0.004981 0.062751 -27.486927 0.419356 0.897313 0.131371 5.977153 13.990654 -12.588562 0.000000 0.000000 0.000000
59.758571 82.313740 247.095102 0.026754 -0.061290 27.624159 0.004714 0.066708 -27.624147 -0.000000 0.000000 0.000000 -1.399444 0.542109 0.646554 0.000000 0.000000 0.000000 -2.819265 -1.510563 0.151409 3.619211 3.419003 -0.523828 9.102914 -7.918317 4.137109 -10.893544 14.735582 -4.122470 0.000000 0.000000 0.000000 0.000000 0.000000 0.000000 0.932759 -1.106176 0.371242 -2.796848 1.034376 -0.671093 2.810907 1.097434 0.677945 -0.352040 0.863399 -1.066099 0.000000 0.000000 0.000000 0.000000 0.000000 0.000000 -5.319879 14.471839 -24.619093 22.914683 -21.474181 -0.449539 -16.509737 10.672976 10.470861 0.000000 0.000000 0.000000 0.004714 0.066708 -27.624147 0.463291 1.003395 0.147046 5.554988 13.644585 -12.418038 0.000000 0.000000 0.000000
59.778843 82.340410 247.037790 0.004931 -0.059196 27.755749 0.023204 0.054682 -27.755757 -0.000000 0.000000 0.000000 -1.333006 0.493755 0.610873 0.000000 0.000000 0.000000 -2.446659 -1.103498 0.135870 3.749840 3.473518 -0.499603 7.930388 -8.746906 3.850108 -12.540711 13.697670 -3.519674 0.000000 0.000000 0.000000 0.000000 0.000000 0.000000 1.264634 -1.356831 0.430959 -3.200364 1.444391 -0.751526 2.828063 1.320216 0.684646 -1.218202 0.618265 -1.299920 0.000000 0.000000 0.000000 0.000000 0.000000 0.000000 -5.192052 14.514743 -24.733040 22.609891 -21.631241 -0.583186 -13.687630 8.741230 10.585534 0.000000 0.000000 0.000000 0.023204 0.054682 -27.755757 0.565721 1.211528 0.175788 2.848673 9.570221 -9.064977 0.000000 0.000000 0.000000
59.794462 82.353824 246.976169 -0.007075 -0.063245 27.773271 0.035730 0.052662 -27.773291 -0.000000 0.000000 0.000000 -1.349912 0.564241 0.631958 0.000000 0.000000 0.000000 -1.684014 -0.529917 0.097280 3.440631 3.089825 -0.382567 5.143046 -8.393809 2.730832 -12.366254 10.971123 -2.633529 0.000000 0.000000 0.000000 0.000000 0.000000 0.000000 1.499563 -1.526392 0.469953 -3.286443 1.869209 -0.796083 2.492123 1.338636 0.622193 -1.119548 0.564040 -1.333045 0.000000 0.000000 0.000000 0.000000 0.000000 0.000000 -4.588933 13.308301 -25.049357 20.288535 -20.049236 -1.041579 -5.875470 3.041378 10.662041 0.000000 0.000000 0.000000 0.035730 0.052662 -27.773291 0.632040 1.346686 0.194266 2.257138 5.437888 -5.313408 0.000000 0.000000 0.000000
59.823948 82.365928 246.905345 -0.043313 -0.072269 27.762464 0.071991 0.043774 -27.762519 -0.000000 0.000000 0.000000 -0.996698 0.494674 0.481168 0.000000 0.000000 0.000000 -0.000000 0.000000 0.000000 2.108255 2.471198 -0.167216 1.709721 -6.887379 1.291159 -7.326687 8.545242 -1.769818 0.000000 0.000000 0.000000 0.000000 0.000000 0.000000 1.703424 -1.641468 0.486791 -3.339226 2.317705 -0.836997 2.031740 1.208824 0.529354 -1.157775 -0.072991 -1.080099 0.000000 0.000000 0.000000 0.000000 0.000000 0.000000 -3.511817 10.881140 -25.608444 16.195982 -16.643336 -1.541081 0.127574 -0.945629 8.619944 0.000000 0.000000 0.000000 -0.356578 -0.622427 -27.581409 0.632303 1.990430 -0.016326 0.639063 0.182326 -0.910739 0.000000 0.000000 0.000000
